<svg width="22" height="20" viewBox="0 0 22 20" fill="none" xmlns="http://www.w3.org/2000/svg">
<path d="M14.7066 11.1361L13.608 10.0375C14.0408 8.8556 13.8161 7.87349 12.9338 7.09114C12.0516 6.30878 11.0945 6.10903 10.0624 6.49189L8.9638 5.39326C9.24678 5.21015 9.56305 5.07699 9.91261 4.99376C10.2622 4.91053 10.6201 4.86891 10.9863 4.86891C12.1681 4.86891 13.171 5.2809 13.995 6.10487C14.819 6.92884 15.231 7.93175 15.231 9.11361C15.231 9.47982 15.1852 9.84186 15.0936 10.1997C15.0021 10.5576 14.8731 10.8697 14.7066 11.1361ZM17.9276 14.3571L16.9288 13.3583C17.7445 12.7591 18.4561 12.0891 19.0637 11.3483C19.6712 10.6076 20.1165 9.86267 20.3995 9.11361C19.5672 7.26592 18.3188 5.80524 16.6542 4.73159C14.9896 3.65793 13.1835 3.1211 11.236 3.1211C10.5368 3.1211 9.82106 3.18768 9.08864 3.32085C8.35622 3.45402 7.78194 3.61215 7.36579 3.79526L6.21723 2.62172C6.79983 2.35539 7.54474 2.12235 8.45193 1.9226C9.35913 1.72285 10.2455 1.62297 11.1111 1.62297C13.4915 1.62297 15.6679 2.30129 17.6404 3.65793C19.613 5.01456 21.057 6.83313 21.9725 9.11361C21.5397 10.1789 20.9821 11.1527 20.2996 12.035C19.6171 12.9172 18.8265 13.6912 17.9276 14.3571ZM19.3758 20L15.181 15.8801C14.5984 16.1132 13.9409 16.2921 13.2085 16.417C12.4761 16.5418 11.7353 16.6042 10.9863 16.6042C8.55597 16.6042 6.3504 15.9259 4.36954 14.5693C2.38868 13.2127 0.932168 11.3941 0 9.11361C0.332917 8.24802 0.79484 7.40325 1.38577 6.57928C1.9767 5.75531 2.69663 4.96879 3.54557 4.21973L0.399501 1.07366L1.44819 0L20.3496 18.9014L19.3758 20ZM4.56929 5.26841C3.95339 5.71785 3.3583 6.30878 2.78402 7.0412C2.20974 7.77362 1.79775 8.46442 1.54806 9.11361C2.397 10.9613 3.67457 12.422 5.38077 13.4956C7.08697 14.5693 9.02206 15.1061 11.186 15.1061C11.7353 15.1061 12.2763 15.0728 12.809 15.0062C13.3417 14.9397 13.7412 14.8398 14.0075 14.7066L12.4095 13.1086C12.2264 13.1918 12.0017 13.2543 11.7353 13.2959C11.469 13.3375 11.2193 13.3583 10.9863 13.3583C9.82106 13.3583 8.82231 12.9505 7.99001 12.1348C7.15772 11.3192 6.74157 10.3121 6.74157 9.11361C6.74157 8.86392 6.76238 8.61423 6.804 8.36454C6.84561 8.11486 6.90803 7.89014 6.99126 7.69039L4.56929 5.26841Z" fill="black"/>
</svg>
